<svg viewBox="0 0 800 600" xmlns="http://www.w3.org/2000/svg">
  <!-- Layer 1: Background (Navy Blue HTV) -->
  <rect width="800" height="600" fill="#1a237e"/>
  
  <!-- Layer 2: Stars (White HTV - small pieces) -->
  <circle cx="150" cy="80" r="2" fill="white"/>
  <circle cx="650" cy="120" r="2.5" fill="white"/>
  <circle cx="720" cy="200" r="2" fill="white"/>
  <circle cx="100" cy="180" r="1.5" fill="white"/>
  <circle cx="680" cy="350" r="2" fill="white"/>
  <circle cx="50" cy="250" r="1.5" fill="white"/>
  <circle cx="750" cy="80" r="2" fill="white"/>
  
  <!-- Layer 3: Mountain silhouettes (Dark Gray/Black HTV) -->
  <polygon points="0,500 150,400 300,450 450,380 600,420 750,390 800,410 800,600 0,600" 
           fill="#263238"/>
  <polygon points="100,520 250,430 400,460 550,420 700,440 800,430 800,600 0,600" 
           fill="#37474f"/>
  
  <!-- Layer 4: Moon (White or Pale Yellow HTV) -->
  <circle cx="400" cy="150" r="75" fill="#fff9c4"/>
  
  <!-- Layer 5: Moon details (Light Gray HTV - optional for complexity) -->
  <circle cx="385" cy="135" r="8" fill="#e0e0e0"/>
  <circle cx="410" cy="160" r="5" fill="#e0e0e0"/>
  <circle cx="420" cy="140" r="3" fill="#e0e0e0"/>
  
  <!-- Layer 6: Llama 1 - Left, calling upward (Dark Gray HTV) -->
  <g transform="translate(150, 280)">
    <!-- Llama body -->
    <ellipse cx="45" cy="120" rx="35" ry="45" fill="#424242"/>
    
    <!-- Llama neck -->
    <ellipse cx="40" cy="75" rx="12" ry="35" fill="#424242"/>
    
    <!-- Llama head -->
    <ellipse cx="35" cy="35" rx="18" ry="25" fill="#424242"/>
    
    <!-- Llama ears (upright ovals) -->
    <ellipse cx="25" cy="20" rx="6" ry="12" fill="#424242"/>
    <ellipse cx="45" cy="18" rx="6" ry="12" fill="#424242"/>
    
    <!-- Llama nose/mouth area -->
    <ellipse cx="35" cy="50" rx="10" ry="8" fill="#424242"/>
    
    <!-- Calling mouth -->
    <ellipse cx="40" cy="45" rx="4" ry="8" fill="#1a237e"/>
    
    <!-- Fluffy chest -->
    <circle cx="25" cy="90" r="15" fill="#424242"/>
  </g>
  
  <!-- Layer 7: Llama 2 - Center, profile (Dark Gray HTV) -->
  <g transform="translate(350, 320)">
    <!-- Llama body -->
    <ellipse cx="45" cy="110" rx="40" ry="50" fill="#424242"/>
    
    <!-- Llama neck (profile) -->
    <ellipse cx="80" cy="70" rx="25" ry="15" fill="#424242"/>
    
    <!-- Llama head (profile) -->
    <ellipse cx="105" cy="60" rx="20" ry="15" fill="#424242"/>
    
    <!-- Llama ears (upright) -->
    <ellipse cx="95" cy="45" rx="5" ry="10" fill="#424242"/>
    <ellipse cx="105" cy="43" rx="5" ry="10" fill="#424242"/>
    
    <!-- Llama nose/snout -->
    <ellipse cx="125" cy="62" rx="8" ry="6" fill="#424242"/>
    
    <!-- Nose detail -->
    <circle cx="130" cy="62" r="2" fill="#1a237e"/>
    
    <!-- Fluffy chest -->
    <circle cx="30" cy="85" r="18" fill="#424242"/>
    
    <!-- Fluffy back -->
    <circle cx="60" cy="75" r="12" fill="#424242"/>
  </g>
  
  <!-- Layer 8: Llama 3 - Right, looking toward moon (Dark Gray HTV) -->
  <g transform="translate(550, 300)">
    <!-- Llama body -->
    <ellipse cx="45" cy="120" rx="38" ry="48" fill="#424242"/>
    
    <!-- Llama neck (angled upward) -->
    <ellipse cx="35" cy="75" rx="15" ry="30" fill="#424242" transform="rotate(-15 35 75)"/>
    
    <!-- Llama head (looking up) -->
    <ellipse cx="25" cy="35" rx="16" ry="20" fill="#424242" transform="rotate(-20 25 35)"/>
    
    <!-- Llama ears (upright) -->
    <ellipse cx="15" cy="20" rx="5" ry="10" fill="#424242" transform="rotate(-20 15 20)"/>
    <ellipse cx="30" cy="18" rx="5" ry="10" fill="#424242" transform="rotate(-20 30 18)"/>
    
    <!-- Llama nose -->
    <ellipse cx="20" cy="45" rx="6" ry="4" fill="#424242" transform="rotate(-20 20 45)"/>
    
    <!-- Nose detail -->
    <circle cx="18" cy="47" r="1.5" fill="#1a237e"/>
    
    <!-- Fluffy areas -->
    <circle cx="25" cy="95" r="16" fill="#424242"/>
    <circle cx="55" cy="85" r="14" fill="#424242"/>
  </g>
  
  <!-- Layer 9: Llama eyes (Bright accent color HTV - Electric Blue) -->
  <circle cx="185" cy="315" r="4" fill="#00e5ff"/>
  <circle cx="455" cy="380" r="4" fill="#00e5ff"/>
  <circle cx="575" cy="335" r="4" fill="#00e5ff"/>
</svg>